<svg width="82" height="80" viewBox="0 0 82 80" fill="none" xmlns="http://www.w3.org/2000/svg">
<path d="M41.4346 28.3671C29.6915 35.1777 22.1194 44.1242 18.8005 54.7581C15.4816 65.392 22.602 69.8361 31.635 66.5933C40.6679 63.3504 54.7592 54.0526 62.1766 44.7806C69.5941 35.5086 67.8564 30.8045 65.3581 27.7141C62.8598 24.6238 54.2381 20.9416 41.4346 28.3671Z" fill="#FAB13D"/>
<path fill-rule="evenodd" clip-rule="evenodd" d="M17.488 54.3682C20.9263 43.3514 28.7593 34.1513 40.7454 27.1999C53.9505 19.5414 63.3899 23.0978 66.4344 26.8639C67.8105 28.5661 69.0667 30.8368 68.8564 34.0075C68.6502 37.1166 67.0469 40.8721 63.2522 45.6156C59.4337 50.3888 53.9436 55.1182 48.2983 59.0532C42.6544 62.9871 36.7629 66.1913 32.0958 67.8668C27.3395 69.5743 22.7221 69.3877 19.7058 66.927C16.6174 64.4075 15.7415 59.9642 17.488 54.3682ZM18.8005 54.7582C22.1193 44.1243 29.6914 35.1778 41.4346 28.3672C54.2381 20.9417 62.8598 24.6238 65.3581 27.7142C67.8563 30.8045 69.594 35.5086 62.1766 44.7806C54.7592 54.0526 40.6679 63.3505 31.6349 66.5933C22.602 69.8361 15.4816 65.392 18.8005 54.7582Z" fill="#B7690D"/>
<path d="M26.4515 43.5837C22.091 48.1114 19.8749 53.0587 19.7815 58.2156C19.688 63.3725 23.4532 64.4442 27.0684 61.85C30.6836 59.2559 30.3678 54.3644 32.4722 49.2918C34.5765 44.2192 37.6447 41.6874 37.0266 39.3808C36.5497 37.6009 31.2058 38.6472 26.4515 43.5837Z" fill="#FCC66F"/>
<path fill-rule="evenodd" clip-rule="evenodd" d="M25.7348 48.7627C26.4083 49.1021 26.6712 49.9183 26.3221 50.5855C24.9013 53.301 24.5434 55.4055 24.2674 57.0284C24.2338 57.2263 24.2013 57.417 24.1683 57.6008C24.0358 58.339 23.3229 58.8359 22.5759 58.7107C21.8289 58.5856 21.3308 57.8858 21.4633 57.1477C21.494 56.9765 21.525 56.7935 21.5579 56.5989C21.8368 54.9483 22.2563 52.4653 23.8831 49.3562C24.2322 48.6889 25.0613 48.4232 25.7348 48.7627Z" fill="#FFDFAD"/>
<path fill-rule="evenodd" clip-rule="evenodd" d="M26.8283 67.6156C36.4842 62.8661 48.5047 54.2463 55.3843 45.6466C63.6681 35.2916 61.7274 30.0381 58.9374 26.5868C58.2212 25.7009 57.0545 24.7714 55.4738 24.0194C60.519 23.998 63.9337 25.9522 65.358 27.7141C67.8563 30.8044 69.594 35.5085 62.1765 44.7805C54.7591 54.0525 40.6678 63.3504 31.6348 66.5932C29.9474 67.199 28.3267 67.5365 26.8283 67.6156Z" fill="#EDA024"/>
<path d="M37.2498 51.9295C33.4641 47.7742 25.4125 47.2293 21.8599 47.4763C22.5661 45.1252 24.6555 42.7717 25.6119 41.8888C31.9367 43.7658 36.0058 49.3647 37.2498 51.9295Z" fill="#D08814"/>
<path d="M47.2971 44.5776C42.6366 38.8315 34.5618 35.5531 31.0092 35.8C32.691 33.4417 36.6453 31.366 37.6017 30.4831C44.7144 32.1277 46.0531 42.0128 47.2971 44.5776Z" fill="#A56112"/>
<path d="M56.2276 34.13C51.7283 28.1818 48.0518 27.6656 44.6585 26.6302C46.0261 25.5763 50.0348 24.6621 51.2471 24.1773C54.8115 27.0376 55.5799 29.9053 56.2276 34.13Z" fill="#9C5807"/>
<path fill-rule="evenodd" clip-rule="evenodd" d="M25.1095 42.0818C25.0922 41.708 25.3853 41.3888 25.7643 41.3689C27.3201 41.2872 29.5046 41.9659 31.7466 43.4758C34.0085 44.999 36.3838 47.4027 38.3199 50.8674C38.5025 51.1941 38.381 51.6071 38.0485 51.7898C37.716 51.9725 37.2985 51.8557 37.1159 51.5289C35.2788 48.2414 33.046 45.9978 30.9665 44.5973C28.8671 43.1835 26.977 42.6621 25.8268 42.7226C25.4479 42.7425 25.1267 42.4556 25.1095 42.0818Z" fill="#FFDFAC"/>
<path fill-rule="evenodd" clip-rule="evenodd" d="M37.9255 30.263C38.0543 29.91 38.4479 29.7246 38.8047 29.8489C40.2316 30.3463 42.1122 31.8414 43.8827 34.1454C45.671 36.4726 47.3986 39.69 48.4813 43.7304C48.578 44.0916 48.3592 44.464 47.9924 44.5623C47.6257 44.6606 47.2499 44.4474 47.1531 44.0862C46.1161 40.216 44.4672 37.1577 42.7859 34.9697C41.0866 32.7585 39.4042 31.499 38.3385 31.1275C37.9817 31.0031 37.7968 30.6161 37.9255 30.263Z" fill="#FFDFAC"/>
<path fill-rule="evenodd" clip-rule="evenodd" d="M51.2108 24.0865C51.3688 23.745 51.7765 23.5925 52.1213 23.7458C53.5915 24.3996 54.8917 25.8317 55.8492 27.5754C56.8146 29.3336 57.4752 31.485 57.6131 33.6834C57.6365 34.0568 57.3486 34.3806 56.97 34.4066C56.5914 34.4325 56.2655 34.1509 56.2421 33.7774C56.1168 31.7806 55.514 29.8192 54.6404 28.2283C53.7588 26.6229 52.6444 25.4695 51.5491 24.9825C51.2043 24.8291 51.0528 24.428 51.2108 24.0865Z" fill="#FFDFAC"/>
<path d="M58.3469 42.709C58.36 43.4403 57.9271 44.0442 57.3801 44.0579C56.833 44.0716 56.3789 43.4898 56.3658 42.7585C56.3527 42.0272 56.7855 41.4232 57.3326 41.4096C57.8796 41.3959 58.3338 41.9777 58.3469 42.709Z" fill="#D48A15"/>
<path d="M54.2121 45.6628C54.2227 46.2568 53.8711 46.7474 53.4267 46.7586C52.9823 46.7697 52.6134 46.2971 52.6028 45.703C52.5921 45.1089 52.9437 44.6183 53.3881 44.6072C53.8325 44.5961 54.2014 45.0687 54.2121 45.6628Z" fill="#D48A15"/>
<path d="M57.9506 46.4627C57.9613 47.0568 57.6096 47.5474 57.1653 47.5585C56.7209 47.5696 56.352 47.097 56.3413 46.5029C56.3307 45.9088 56.6823 45.4182 57.1267 45.4071C57.5711 45.396 57.94 45.8686 57.9506 46.4627Z" fill="#D48A15"/>
<path d="M55.1093 40.5494C55.12 41.1434 54.7683 41.634 54.3239 41.6452C53.8795 41.6563 53.5107 41.1837 53.5 40.5896C53.4893 39.9955 53.841 39.5049 54.2854 39.4938C54.7298 39.4827 55.0986 39.9553 55.1093 40.5494Z" fill="#D48A15"/>
<path d="M61.2079 40.4401C61.2186 41.0342 60.867 41.5248 60.4226 41.5359C59.9782 41.547 59.6093 41.0744 59.5986 40.4803C59.588 39.8863 59.9396 39.3957 60.384 39.3846C60.8284 39.3734 61.1973 39.846 61.2079 40.4401Z" fill="#D48A15"/>
<path d="M58.9774 38.5949C58.9894 39.2648 58.5929 39.8181 58.0918 39.8306C57.5906 39.8431 57.1746 39.3102 57.1626 38.6403C57.1506 37.9703 57.5471 37.4171 58.0483 37.4046C58.5494 37.392 58.9654 37.925 58.9774 38.5949Z" fill="#D48A15"/>
<path d="M64.1952 37.5858C64.2072 38.2557 63.8107 38.8089 63.3095 38.8215C62.8084 38.834 62.3924 38.3011 62.3804 37.6311C62.3684 36.9612 62.7649 36.4079 63.266 36.3954C63.7672 36.3829 64.1832 36.9158 64.1952 37.5858Z" fill="#D48A15"/>
<path d="M62.2133 35.2382C62.2253 35.9082 61.8288 36.4614 61.3276 36.4739C60.8265 36.4865 60.4105 35.9535 60.3985 35.2836C60.3864 34.6136 60.783 34.0604 61.2841 34.0479C61.7852 34.0353 62.2012 34.5683 62.2133 35.2382Z" fill="#D48A15"/>
<path d="M66.5167 33.6281C66.5287 34.2981 66.1322 34.8513 65.6311 34.8638C65.1299 34.8764 64.7139 34.3434 64.7019 33.6735C64.6899 33.0035 65.0864 32.4503 65.5876 32.4378C66.0887 32.4252 66.5047 32.9582 66.5167 33.6281Z" fill="#D48A15"/>
<path d="M63.5017 40.7162C63.5096 41.1546 63.2501 41.5167 62.9221 41.5249C62.5941 41.5331 62.3219 41.1843 62.314 40.7459C62.3062 40.3074 62.5657 39.9454 62.8936 39.9372C63.2216 39.929 63.4938 40.2778 63.5017 40.7162Z" fill="#D48A15"/>
<path d="M60.7266 44.2153C60.7344 44.6538 60.4749 45.0158 60.147 45.024C59.819 45.0322 59.5468 44.6834 59.5389 44.245C59.531 43.8066 59.7905 43.4445 60.1185 43.4363C60.4465 43.4281 60.7187 43.7769 60.7266 44.2153Z" fill="#D48A15"/>
<path d="M52.5579 51.7827C52.5657 52.2211 52.3062 52.5832 51.9783 52.5914C51.6503 52.5996 51.3781 52.2508 51.3702 51.8124C51.3623 51.374 51.6218 51.0119 51.9498 51.0037C52.2778 50.9955 52.55 51.3443 52.5579 51.7827Z" fill="#D48A15"/>
<path d="M55.5068 48.3427C55.5147 48.7811 55.2552 49.1431 54.9272 49.1513C54.5993 49.1595 54.327 48.8108 54.3192 48.3723C54.3113 47.9339 54.5708 47.5718 54.8988 47.5636C55.2267 47.5555 55.499 47.9042 55.5068 48.3427Z" fill="#D48A15"/>
<path d="M52.703 48.5567C52.7094 48.9132 52.4983 49.2077 52.2316 49.2143C51.9649 49.221 51.7436 48.9374 51.7372 48.5809C51.7308 48.2243 51.9418 47.9299 52.2085 47.9232C52.4752 47.9166 52.6966 48.2002 52.703 48.5567Z" fill="#D48A15"/>
<path d="M52.5156 43.1228C52.5235 43.5612 52.264 43.9233 51.936 43.9315C51.6081 43.9397 51.3358 43.5909 51.328 43.1525C51.3201 42.7141 51.5796 42.352 51.9076 42.3438C52.2355 42.3356 52.5078 42.6844 52.5156 43.1228Z" fill="#D48A15"/>
<path d="M56.543 37.4673C56.5508 37.9057 56.2913 38.2678 55.9634 38.276C55.6354 38.2842 55.3632 37.9354 55.3553 37.497C55.3474 37.0585 55.6069 36.6965 55.9349 36.6883C56.2629 36.6801 56.5351 37.0289 56.543 37.4673Z" fill="#D48A15"/>
<path d="M59.2253 33.833C59.2332 34.2714 58.9737 34.6335 58.6457 34.6417C58.3178 34.6499 58.0455 34.3011 58.0377 33.8627C58.0298 33.4243 58.2893 33.0622 58.6173 33.054C58.9452 33.0458 59.2175 33.3946 59.2253 33.833Z" fill="#D48A15"/>
<path d="M62.8447 32.1545C62.8526 32.593 62.5931 32.955 62.2651 32.9632C61.9372 32.9714 61.6649 32.6227 61.6571 32.1842C61.6492 31.7458 61.9087 31.3837 62.2367 31.3755C62.5646 31.3673 62.8369 31.7161 62.8447 32.1545Z" fill="#D48A15"/>
<path d="M65.1631 31.2448C65.1709 31.6832 64.9114 32.0452 64.5835 32.0534C64.2555 32.0616 63.9833 31.7129 63.9754 31.2744C63.9676 30.836 64.227 30.4739 64.555 30.4657C64.883 30.4575 65.1552 30.8063 65.1631 31.2448Z" fill="#D48A15"/>
</svg>
