<svg width="109" height="30" viewBox="0 0 109 30" fill="none" xmlns="http://www.w3.org/2000/svg">
<g filter="url(#filter0_i_236_3101)">
<path d="M27.0994 2.2V3.6L25.4194 3.64L16.0594 28.68L10.8594 29.36L2.17943 3.64L0.499434 3.6V2.2H12.6594V3.6L10.2994 3.64L15.6194 24.24L20.3794 3.64L18.0194 3.6V2.2H27.0994ZM28.0572 27.84L29.5372 27.72L29.3372 3.76L27.8172 4.08L27.4172 2.92L34.8172 0.68L35.3772 1.64L35.1772 27.72L36.6572 27.84V29H28.0572V27.84ZM47.1801 10.4C49.5267 10.4 51.3667 11.2533 52.7001 12.96C54.0601 14.64 54.7267 16.92 54.7001 19.8L43.6601 20.16C43.8467 21.7333 44.3934 22.9333 45.3001 23.76C46.2067 24.5867 47.4067 25 48.9001 25C50.9801 25 52.6734 24.4267 53.9801 23.28L54.7001 23.92C53.7667 25.7067 52.5001 27.1067 50.9001 28.12C49.3267 29.1067 47.6467 29.6 45.8601 29.6C43.4334 29.6 41.5001 28.8 40.0601 27.2C38.6467 25.5733 37.9401 23.3867 37.9401 20.64C37.9401 19.0133 38.2601 17.4 38.9001 15.8C39.5667 14.2 40.4067 12.8667 41.4201 11.8C42.1134 11.4 43.0067 11.0667 44.1001 10.8C45.1934 10.5333 46.2201 10.4 47.1801 10.4ZM48.7801 18.48C48.7534 16.6133 48.4867 15.1333 47.9801 14.04C47.4734 12.9467 46.7534 12.2933 45.8201 12.08C45.1534 12.7733 44.6067 13.7467 44.1801 15C43.7801 16.2267 43.5801 17.4933 43.5801 18.8V18.92L48.7801 18.48ZM72.2269 26.92L66.3469 29.68C65.6269 29.1733 65.1336 28.48 64.8669 27.6C63.9069 28.1867 62.9336 28.6667 61.9469 29.04C60.9869 29.4133 60.1469 29.6 59.4269 29.6C58.3336 29.6 57.4403 29.2133 56.7469 28.44C56.0536 27.6667 55.7069 26.68 55.7069 25.48C55.7069 24.9467 55.7603 24.3733 55.8669 23.76C56.0003 23.12 56.1603 22.6133 56.3469 22.24L64.8269 20.88L64.9069 19.72C64.9603 18.52 64.7069 17.5867 64.1469 16.92C63.5869 16.2267 62.6803 15.88 61.4269 15.88C60.8669 15.88 60.2803 15.9467 59.6669 16.08C59.0536 16.1867 58.5336 16.3333 58.1069 16.52L57.4669 17.88L56.3869 17.48L58.2269 11.72C60.2803 10.84 62.2269 10.4 64.0669 10.4C65.9603 10.4 67.5069 10.9067 68.7069 11.92C69.9069 12.9067 70.5069 14.4667 70.5069 16.6L70.4669 17.4L70.0669 22.8L69.9869 24.24C69.9869 24.72 70.0269 25.1067 70.1069 25.4C70.1869 25.6667 70.3203 25.9467 70.5069 26.24L71.7469 25.76L72.2269 26.92ZM63.1469 26.72C63.5736 26.72 64.0669 26.56 64.6269 26.24L64.5869 25.4L64.6269 24.52L64.7469 22.24L61.6669 22.96C61.5603 23.3067 61.5069 23.7733 61.5069 24.36C61.5069 25.16 61.6669 25.76 61.9869 26.16C62.3069 26.5333 62.6936 26.72 63.1469 26.72ZM80.3057 16.48L80.1457 27.72L83.7057 27.84V29H73.0257V27.84L74.5057 27.72L74.3857 13.4L72.8657 13.76L72.4657 12.56L78.7857 10.6L80.1457 14.88C81.0257 13.0933 81.9857 11.7067 83.0257 10.72C83.6124 10.5067 84.319 10.4 85.1457 10.4C86.2657 10.4 87.319 10.6 88.3057 11L87.0257 16.2C86.2524 16.04 85.2657 15.8933 84.0657 15.76C82.8657 15.6267 81.879 15.5333 81.1057 15.48L80.3057 16.48ZM108.01 27.84V29H99.4497V27.84L100.93 27.72V19.28C100.93 18.1067 100.596 17.2 99.9297 16.56C99.2897 15.92 98.3964 15.5867 97.2497 15.56L95.9697 16.88L95.8097 27.72L97.2897 27.84V29H88.6897V27.84L90.1697 27.72L90.0497 13.4L88.5297 13.76L88.1297 12.56L94.4497 10.6L95.8497 15.08L99.1697 10.32C101.703 10.32 103.57 10.92 104.77 12.12C105.97 13.32 106.57 15.1733 106.57 17.68V27.72L108.01 27.84Z" fill="#149991"/>
</g>
<defs>
<filter id="filter0_i_236_3101" x="0.49939" y="0.680176" width="107.51" height="33" filterUnits="userSpaceOnUse" color-interpolation-filters="sRGB">
<feFlood flood-opacity="0" result="BackgroundImageFix"/>
<feBlend mode="normal" in="SourceGraphic" in2="BackgroundImageFix" result="shape"/>
<feColorMatrix in="SourceAlpha" type="matrix" values="0 0 0 0 0 0 0 0 0 0 0 0 0 0 0 0 0 0 127 0" result="hardAlpha"/>
<feOffset dy="4"/>
<feGaussianBlur stdDeviation="2"/>
<feComposite in2="hardAlpha" operator="arithmetic" k2="-1" k3="1"/>
<feColorMatrix type="matrix" values="0 0 0 0 0 0 0 0 0 0 0 0 0 0 0 0 0 0 0.25 0"/>
<feBlend mode="normal" in2="shape" result="effect1_innerShadow_236_3101"/>
</filter>
</defs>
</svg>
