<svg width="22" height="22" viewBox="0 0 22 22" fill="none" xmlns="http://www.w3.org/2000/svg">
<path d="M10.7417 2.71803L13.2353 7.76961C13.2669 7.83374 13.3281 7.87822 13.3988 7.88856L18.9753 8.70364L14.9404 12.6336C14.8891 12.6836 14.8657 12.7556 14.8778 12.8262L15.83 18.3779L10.843 15.7553C10.7796 15.722 10.7039 15.722 10.6405 15.7553L5.65353 18.3779L6.60571 12.8262C6.61782 12.7556 6.5944 12.6836 6.54309 12.6336L2.50822 8.70364L8.08464 7.88856C8.15541 7.87822 8.21658 7.83374 8.24824 7.76961L10.7417 2.71803Z" stroke="#161618" stroke-width="0.435043" stroke-linecap="round" stroke-linejoin="round"/>
<path d="M10.7417 15.9478L10.7417 2.22659L8.05318 7.67333L2.04089 8.55211L6.39132 12.7894L5.36462 18.7756L10.7417 15.9478Z" fill="#161618"/>
</svg>
