<svg width="24" height="25" viewBox="0 0 24 25" fill="none" xmlns="http://www.w3.org/2000/svg">
<path opacity="0.4" d="M22 16.627C22 19.417 19.76 21.677 16.97 21.687H16.96H7.05C4.27 21.687 2 19.437 2 16.647V16.637C2 16.637 2.006 12.211 2.014 9.98501C2.015 9.56701 2.495 9.33301 2.822 9.59301C5.198 11.478 9.447 14.915 9.5 14.96C10.21 15.529 11.11 15.85 12.03 15.85C12.95 15.85 13.85 15.529 14.56 14.949C14.613 14.914 18.767 11.58 21.179 9.66401C21.507 9.40301 21.989 9.63701 21.99 10.054C22 12.263 22 16.627 22 16.627Z" fill="#0B7077"/>
<path d="M21.4761 6.36052C20.6101 4.72852 18.9061 3.68652 17.0301 3.68652H7.05013C5.17413 3.68652 3.47013 4.72852 2.60413 6.36052C2.41013 6.72552 2.50213 7.18052 2.82513 7.43852L10.2501 13.3775C10.7701 13.7975 11.4001 14.0065 12.0301 14.0065C12.0341 14.0065 12.0371 14.0065 12.0401 14.0065C12.0431 14.0065 12.0471 14.0065 12.0501 14.0065C12.6801 14.0065 13.3101 13.7975 13.8301 13.3775L21.2551 7.43852C21.5781 7.18052 21.6701 6.72552 21.4761 6.36052Z" fill="#0B7077"/>
</svg>
